<svg xmlns="http://www.w3.org/2000/svg" width="25" height="25" viewBox="0 0 25 25">
    <path fill="#0085CA" fill-rule="evenodd" d="M19.923 12.395a.614.614 0 0 1 .661.55c.007.08.142 1.937-1.147 3.314-.854.91-2.1 1.35-3.706 1.35H8.35v1.62c0 .117-.131.224-.239.275a.641.641 0 0 1-.195.03.312.312 0 0 1-.194-.068l-2.608-2.082a.303.303 0 0 1 0-.473l2.608-2.082a.432.432 0 0 1 .39-.038c.107.05.238.157.238.274v1.478h7.38c1.242 0 2.182-.384 2.792-1.03.923-.979.832-2.438.83-2.452a.625.625 0 0 1 .57-.666zm-14.255.74c-.333.02-.634-.214-.661-.548-.006-.08-.141-1.949 1.147-3.325.854-.91 2.1-1.362 3.706-1.362h7.373V6.304c0-.117.135-.224.242-.274a.664.664 0 0 1 .2-.03c.069 0 .137.023.193.068l2.609 2.082a.302.302 0 0 1 0 .473l-2.609 2.082a.44.44 0 0 1-.393.038c-.107-.05-.242-.158-.242-.275V8.966H9.86c-1.242 0-2.182.397-2.792 1.043-.923.978-.831 2.443-.83 2.458a.628.628 0 0 1-.57.669z"/>
</svg>
