<svg xmlns="http://www.w3.org/2000/svg" width="25" height="25" viewBox="0 0 25 25">
    <path fill="#333841" fill-rule="evenodd" d="M18.555 14.19l2.374 1.883a.322.322 0 0 1 0 .506l-2.374 1.882a.337.337 0 0 1-.352.04.326.326 0 0 1-.19-.293V16.97a5.477 5.477 0 0 1-.627.035c-1.285 0-3.55-.4-5.319-2.858.26-.391.508-.823.74-1.298 1.953 3.248 4.737 2.898 5.207 2.812v-1.219c0-.125.074-.24.19-.293a.335.335 0 0 1 .351.04zm-.541-6.376c-.498-.093-3.898-.555-5.828 4.022-1.98 4.695-5.64 5.174-7.05 5.174-.353 0-.565-.03-.575-.032a.653.653 0 0 1-.553-.744.66.66 0 0 1 .757-.542c.166.023 4.13.538 6.192-4.353 2.085-4.946 5.852-4.968 7.057-4.835V5.326c0-.125.074-.24.19-.294a.335.335 0 0 1 .351.041l2.374 1.882a.324.324 0 0 1 .124.253.324.324 0 0 1-.124.253l-2.374 1.882a.337.337 0 0 1-.352.04.326.326 0 0 1-.19-.293V7.814zm-13.246-.03a.662.662 0 0 1-.76-.54.653.653 0 0 1 .553-.746c.044-.008 3.683-.518 6.305 2.85-.245.396-.474.84-.69 1.319C8 7.34 4.804 7.78 4.767 7.784z"/>
</svg>
