<svg
    xmlns="http://www.w3.org/2000/svg"
    viewBox="0 0 41 25"
    id="vector">
    <path
        id="path"
        d="M 3.316 1.263 C 2.89 0.976 2.304 0.919 1.809 1.115 C 1.315 1.311 1 1.726 1 2.18 L 1 23.027 C 1 23.482 1.315 23.897 1.809 24.093 C 2.004 24.17 2.213 24.208 2.422 24.208 C 2.741 24.208 3.058 24.118 3.316 23.945 L 18.83 13.521 C 19.164 13.297 19.357 12.96 19.357 12.604 C 19.357 12.248 19.164 11.91 18.83 11.686 L 3.316 1.263 M 22.89 1.263 C 22.465 0.976 21.878 0.919 21.384 1.115 C 20.89 1.311 20.574 1.726 20.574 2.18 L 20.574 23.027 C 20.574 23.482 20.89 23.897 21.384 24.093 C 21.579 24.17 21.788 24.208 21.996 24.208 C 22.315 24.208 22.633 24.118 22.89 23.945 L 38.404 13.521 C 38.738 13.297 38.932 12.96 38.932 12.604 C 38.932 12.248 38.738 11.91 38.404 11.686 L 22.89 1.263"
        fill="none"
        stroke="#333841"
        stroke-width="1.5"
        fill-rule="evenodd"/>
    <path
        id="path_1"
        d="M 39.936 1 L 39.936 24.172"
        fill="#00000000"
        stroke="#333841"
        stroke-width="1.5"
        stroke-linecap="round"
        stroke-linejoin="round"
        fill-rule="evenodd"/>
</svg>
