<svg
    xmlns="http://www.w3.org/2000/svg"
    viewBox="0 0 58 58"
    id="vector">
    <path
        id="path"
        d="M 28.95 0.24 C 13.23 0.24 0.45 13.02 0.45 28.74 C 0.45 44.45 13.23 57.24 28.95 57.24 C 44.66 57.24 57.45 44.45 57.45 28.74 C 57.45 13.02 44.66 0.24 28.95 0.24 L 28.95 0.24 Z M 28.95 54.81 C 14.34 54.81 2.45 43.02 2.45 28.53 C 2.45 14.03 14.34 2.24 28.95 2.24 C 43.56 2.24 55.45 14.03 55.45 28.53 C 55.45 43.02 43.56 54.81 28.95 54.81 L 28.95 54.81 Z"
        fill="#333841"
        stroke="#00000000"
        stroke-width="1"
        fill-rule="evenodd"/>
    <path
        id="path_1"
        d="M 23 15 L 23 15 C 23.53 15 24.039 15.211 24.414 15.586 C 24.789 15.961 25 16.47 25 17 L 25 41 C 25 41.53 24.789 42.039 24.414 42.414 C 24.039 42.789 23.53 43 23 43 L 23 43 C 22.47 43 21.961 42.789 21.586 42.414 C 21.211 42.039 21 41.53 21 41 L 21 17 C 21 16.47 21.211 15.961 21.586 15.586 C 21.961 15.211 22.47 15 23 15 Z"
        fill="#333841"
        stroke="#00000000"
        stroke-width="1"
        fill-rule="evenodd"/>
    <path
        id="path_2"
        d="M 35 15 L 35 15 C 35.53 15 36.039 15.211 36.414 15.586 C 36.789 15.961 37 16.47 37 17 L 37 41 C 37 41.53 36.789 42.039 36.414 42.414 C 36.039 42.789 35.53 43 35 43 L 35 43 C 34.47 43 33.961 42.789 33.586 42.414 C 33.211 42.039 33 41.53 33 41 L 33 17 C 33 16.47 33.211 15.961 33.586 15.586 C 33.961 15.211 34.47 15 35 15 Z"
        fill="#333841"
        stroke="#00000000"
        stroke-width="1"
        fill-rule="evenodd"/>
</svg>
