<svg xmlns="http://www.w3.org/2000/svg" width="58" height="58" viewBox="0 0 58 58">
    <g fill="#333841" fill-rule="evenodd">
        <path d="M28.95.238C13.235.238.45 13.023.45 28.738s12.785 28.5 28.5 28.5 28.5-12.785 28.5-28.5S44.665.238 28.95.238zm0 54.577c-14.612 0-26.5-11.793-26.5-26.289 0-14.496 11.888-26.288 26.5-26.288s26.5 11.792 26.5 26.288-11.888 26.289-26.5 26.289z"/>
        <path d="M24.866 15.296a1.447 1.447 0 0 0-1.523-.178c-.5.236-.819.737-.819 1.287v25.19c0 .55.319 1.05.819 1.287a1.446 1.446 0 0 0 1.523-.178l15.69-12.595a1.422 1.422 0 0 0 0-2.218l-15.69-12.595"/>
    </g>
</svg>
