<svg
    xmlns="http://www.w3.org/2000/svg"
    viewBox="0 0 41 41"
    id="vector">
    <path
        id="path"
        d="M 37.684 8.77 C 38.11 8.476 38.696 8.417 39.191 8.618 C 39.685 8.82 40 9.246 40 9.714 L 40 31.152 C 40 31.62 39.685 32.046 39.191 32.248 C 38.996 32.327 38.787 32.366 38.578 32.366 C 38.259 32.366 37.942 32.274 37.684 32.096 L 22.17 21.377 C 21.836 21.146 21.643 20.799 21.643 20.433 C 21.643 20.067 21.836 19.72 22.17 19.489 L 37.684 8.77 M 18.11 8.77 C 18.535 8.476 19.122 8.417 19.616 8.618 C 20.11 8.82 20.426 9.246 20.426 9.714 L 20.426 31.152 C 20.426 31.62 20.11 32.046 19.616 32.248 C 19.421 32.327 19.212 32.366 19.004 32.366 C 18.685 32.366 18.367 32.274 18.11 32.096 L 2.596 21.377 C 2.262 21.146 2.068 20.799 2.068 20.433 C 2.068 20.067 2.262 19.72 2.596 19.489 L 18.11 8.77"
        fill="none"
        stroke="#333841"
        stroke-width="1.5"
        fill-rule="evenodd"/>
    <path
        id="path_1"
        d="M 1.064 8.5 L 1.064 32.33"
        fill="#00000000"
        stroke="#333841"
        stroke-width="1.5"
        stroke-linecap="round"
        stroke-linejoin="round"
        fill-rule="evenodd"/>
</svg>
