<svg xmlns="http://www.w3.org/2000/svg" width="50" height="30" viewBox="0 0 50 30">
    <g fill="none" fill-rule="evenodd">
        <rect width="50" height="30" fill="#757575" rx="2"/>
        <path fill="#FFF" d="M30 19.137c-.76 0-1.44.3-1.96.773l-7.13-4.167a3.3 3.3 0 0 0 .09-.703 3.3 3.3 0 0 0-.09-.703l7.05-4.126a2.98 2.98 0 0 0 2.04.813c1.66 0 3-1.345 3-3.012A3.002 3.002 0 0 0 30 5c-1.66 0-3 1.345-3 3.012 0 .241.04.472.09.703l-7.05 4.126a2.98 2.98 0 0 0-2.04-.813c-1.66 0-3 1.345-3 3.012a3.002 3.002 0 0 0 3 3.012c.79 0 1.5-.311 2.04-.813l7.12 4.177c-.05.21-.08.431-.08.652A2.93 2.93 0 0 0 30 25a2.93 2.93 0 0 0 2.92-2.932A2.93 2.93 0 0 0 30 19.137z"/>
    </g>
</svg>
