<svg xmlns="http://www.w3.org/2000/svg" width="50" height="30" viewBox="0 0 50 30">
    <g fill="none" fill-rule="evenodd">
        <rect width="50" height="30" fill="#67C15E" rx="2"/>
        <path fill="#FFF" d="M32.938 7.199C30.963 5.139 28.342 4.005 25.545 4c-5.764 0-10.45 4.892-10.455 10.898 0 1.924.481 3.795 1.394 5.452L15 26l5.543-1.516a10.122 10.122 0 0 0 4.997 1.328h.005c5.759 0 10.45-4.893 10.455-10.903 0-2.912-1.088-5.65-3.062-7.71zm-7.393 16.773a8.397 8.397 0 0 1-4.425-1.265l-.316-.199-3.288.9.877-3.346-.205-.345a9.309 9.309 0 0 1-1.329-4.819c0-4.997 3.9-9.058 8.691-9.058 2.32 0 4.5.946 6.145 2.655 1.639 1.715 2.54 3.988 2.54 6.408-.004 5.002-3.903 9.069-8.69 9.069zm4.766-6.79c-.26-.136-1.543-.794-1.784-.888-.24-.09-.416-.136-.586.136-.176.271-.677.888-.827 1.066-.15.183-.306.204-.567.068-.26-.136-1.102-.424-2.1-1.354-.776-.721-1.298-1.615-1.453-1.887-.15-.272-.015-.418.115-.554.116-.12.26-.319.391-.476.13-.156.176-.271.26-.454.086-.183.046-.34-.02-.476-.064-.136-.586-1.48-.806-2.023-.21-.533-.426-.46-.587-.465-.15-.01-.325-.01-.5-.01a.944.944 0 0 0-.697.34c-.24.271-.913.93-.913 2.273s.938 2.634 1.068 2.817c.13.183 1.84 2.933 4.46 4.114.622.282 1.108.45 1.49.575.626.209 1.192.178 1.643.11.501-.079 1.544-.659 1.764-1.297.216-.637.216-1.18.15-1.296-.065-.115-.24-.183-.5-.319z"/>
    </g>
</svg>
