<svg xmlns="http://www.w3.org/2000/svg" width="50" height="30" viewBox="0 0 50 30">
    <g fill="none" fill-rule="evenodd">
        <rect width="50" height="30" fill="#4460A0" rx="2"/>
        <path fill="#FFF" d="M15.214 26c-.67 0-1.214-.544-1.214-1.214V5.214C14 4.544 14.544 4 15.214 4h19.572C35.456 4 36 4.544 36 5.214v19.572c0 .67-.544 1.214-1.214 1.214H29.18v-8.52h2.86l.428-3.32H29.18v-2.12c0-.96.267-1.616 1.645-1.616h1.758v-2.97c-.304-.04-1.347-.131-2.562-.131-2.535 0-4.27 1.547-4.27 4.389v2.448h-2.867v3.32h2.867V26H15.214z"/>
    </g>
</svg>
